{"title":"Seed of Chucky 2004 DVDrip English Klam","uid":6707672,"size":1470580579,"categoryP":"video","categoryS":"movies","magnet":"?xt=urn:btih:3a96ba32e5f5b55fa0a0ff6add2cf12abe52561f&amp;dn=Seed+of+Chucky+2004+DVDrip+English+Klam&amp;tr=udp%3A%2F%2Ftracker.openbittorrent.com%3A80&amp;tr=udp%3A%2F%2Fopen.demonii.com%3A1337&amp;tr=udp%3A%2F%2Ftracker.coppersurfer.tk%3A6969&amp;tr=udp%3A%2F%2Fexodus.desync.com%3A6969","seeders":1,"leechers":2,"uploader":"Klambake","files":-1,"time":1317230383,"description":"With the voices of Brad Dourif, Jennifer Tilly and Billy Boyd\n\nDe goedaardige pop Glen is een wees, voortgekomen uit de bizarre relatie tussen de duivelse moordlustige pop Chucky en zijn minstens zo gestoorde bruid Tiffany. Wanneer er plannen zijn om een film te maken over de gruwelijke misdaden van zijn ouders, vertrekt Glen naar Hollywood om zijn bloeddorstige vader en moeder opnieuw tot leven te wekken. Het gezin blijkt echter niet zo goed met elkaar overweg te kunnen. Chucky kan niet geloven dat zijn zoon niet te porren is voor een goede moordpartij. En Tiffany kan niet geloven dat haar favoriete actrice Jennifer Tilly in de film zal meespelen!\n\nChuck (Brad Dourif) and Tiff (Jennifer Tilly) return, resurrected by their son (Billy Boyd), and hit Hollywood in the fifth film of the CHILD'S PLAY series.\n\n------------------ Dutch Friends ------------------\nYou can find my Friends at: http://www.Film-Test.nl \n------ They got my dutch subs ----- and more ------\n\nGeneral:\n\nComplete name                    : Child's Play 5\\Seed of Chucky.avi\nFormat                           : AVI\nFormat/Info                      : Audio Video Interleave\nFile size                        : 1.37 GiB\nDuration                         : 1h 22mn\nOverall bit rate                 : 2 372 Kbps\n\nVideo:\n\nFormat                           : MPEG-4 Visual\nFormat profile                   : Simple@L3\nFormat settings, BVOP            : No\nFormat settings, QPel            : No\nFormat settings, GMC             : No warppoints\nFormat settings, Matrix          : Default (H.263)\nCodec ID                         : XVID\nCodec ID/Hint                    : XviD\nDuration                         : 1h 22mn\nBit rate                         : 2 138 Kbps\nWidth                            : 652 pixels\nHeight                           : 352 pixels\nDisplay aspect ratio             : 1.852\nFrame rate                       : 25.000 fps\nColor space                      : YUV\nChroma subsampling               : 4:2:0\nBit depth                        : 8 bits\nScan type                        : Progressive\nBits/(Pixel*Frame)               : 0.373\nStream size                      : 1.23 GiB (90%)\nWriting library                  : XviD 1.1.2 (UTC 2006-11-01)\n\nAudio:\n\nFormat                           : AC-3\nFormat/Info                      : Audio Coding 3\nMode extension                   : CM (complete main)\nCodec ID                         : 2000\nDuration                         : 1h 22mn\nBit rate mode                    : Constant\nBit rate                         : 224 Kbps\nChannel(s)                       : 2 channels\nChannel positions                : Front: L R\nSampling rate                    : 48.0 KHz\nBit depth                        : 16 bits\nStream size                      : 132 MiB (9%)\nAlignment                        : Aligned on interleaves\nInterleave, duration             : 32 ms (0.80 video frame)\nInterleave, preload duration     : 32 ms\n\n","torrent":{"xt":"urn:btih:3a96ba32e5f5b55fa0a0ff6add2cf12abe52561f","amp;dn":"Seed+of+Chucky+2004+DVDrip+English+Klam","amp;tr":["udp%3A%2F%2Ftracker.openbittorrent.com%3A80","udp%3A%2F%2Fopen.demonii.com%3A1337","udp%3A%2F%2Ftracker.coppersurfer.tk%3A6969","udp%3A%2F%2Fexodus.desync.com%3A6969"],"infoHash":"3a96ba32e5f5b55fa0a0ff6add2cf12abe52561f","infoHashBuffer":{"type":"Buffer","data":[58,150,186,50,229,245,181,95,160,160,255,106,221,44,241,42,190,82,86,31]},"announce":[],"urlList":[]}}